<svg width="24" height="24" viewBox="0 0 24 24" fill="none" xmlns="http://www.w3.org/2000/svg">
<path d="M16.208 4C16.6221 4.00013 16.958 4.33587 16.958 4.75V6.08301H20.085V20.084H4V6.08301H7.125V4.75C7.125 4.33579 7.46079 4 7.875 4C8.2891 4.00013 8.625 4.33587 8.625 4.75V6.08301H15.458V4.75C15.458 4.33579 15.7938 4 16.208 4ZM5.5 18.584H18.585V11.1885H5.5V18.584ZM5.5 9.68848H18.585V7.58301H16.2275C16.221 7.58318 16.2145 7.58398 16.208 7.58398C16.2015 7.58398 16.195 7.58317 16.1885 7.58301H7.89453C7.88804 7.58318 7.88154 7.58398 7.875 7.58398C7.86846 7.58398 7.86196 7.58317 7.85547 7.58301H5.5V9.68848Z" fill="currentColor"/>
</svg>
