<svg width="24" height="24" viewBox="0 0 24 24" fill="none" xmlns="http://www.w3.org/2000/svg">
<g clip-path="url(#clip0_10039_266)">
<path d="M11.9996 0C5.34794 0 -0.0444336 5.39238 -0.0444336 12.0441C-0.0444336 17.6923 3.84436 22.4319 9.09028 23.7336V15.7248H6.60679V12.0441H9.09028V10.4581C9.09028 6.35879 10.9455 4.45872 14.9702 4.45872C15.7333 4.45872 17.05 4.60855 17.5886 4.75789V8.0941C17.3043 8.06423 16.8105 8.0493 16.1973 8.0493C14.2225 8.0493 13.4594 8.79748 13.4594 10.7424V12.0441H17.3935L16.7176 15.7248H13.4594V24C19.4231 23.2798 24.0442 18.202 24.0442 12.0441C24.0437 5.39238 18.6514 0 11.9996 0Z" fill="currentColor"/>
</g>
<defs>
<clipPath id="clip0_10039_266">
<rect width="24" height="24" fill="white"/>
</clipPath>
</defs>
</svg>
