<svg width="24" height="24" viewBox="0 0 24 24" fill="none" xmlns="http://www.w3.org/2000/svg">
<path d="M11.9727 2C15.7694 2.00022 18.9442 4.87024 18.9443 8.52539C18.9442 11.5126 17.269 14.5816 15.6973 16.8252C14.8996 17.9639 14.1035 18.9252 13.5068 19.6016C13.2083 19.94 12.9582 20.2079 12.7822 20.3926C12.6943 20.4849 12.6244 20.5574 12.5762 20.6064L12.501 20.6816L12.5 20.6836H12.499L11.9727 20.1504L12.499 20.6846L11.9727 21.2041L11.4453 20.6846L11.9727 20.1504L11.4453 20.6836H11.4443L11.4434 20.6816L11.3682 20.6064C11.3199 20.5574 11.2501 20.4849 11.1621 20.3926C10.9861 20.2079 10.7361 19.94 10.4375 19.6016C9.84085 18.9252 9.04477 17.9639 8.24707 16.8252C6.67532 14.5816 5.00012 11.5126 5 8.52539C5.00012 4.8701 8.17573 2 11.9727 2ZM11.9727 3.5C8.89686 3.5 6.50012 5.8019 6.5 8.52539C6.50012 11.0242 7.93641 13.7677 9.47559 15.9648C10.2333 17.0464 10.9925 17.9633 11.5625 18.6094C11.7136 18.7807 11.8513 18.9328 11.9717 19.0635C12.0922 18.9327 12.2305 18.7809 12.3818 18.6094C12.9518 17.9633 13.711 17.0464 14.4688 15.9648C16.0079 13.7677 17.4442 11.0242 17.4443 8.52539C17.4442 5.80203 15.0482 3.50022 11.9727 3.5ZM11.8984 6.25C13.4172 6.25 14.6484 7.48122 14.6484 9C14.6484 10.5188 13.4172 11.75 11.8984 11.75C10.3797 11.75 9.14844 10.5188 9.14844 9C9.14844 7.48122 10.3797 6.25 11.8984 6.25ZM11.8984 7.75C11.2081 7.75 10.6484 8.30964 10.6484 9C10.6484 9.69036 11.2081 10.25 11.8984 10.25C12.5888 10.25 13.1484 9.69036 13.1484 9C13.1484 8.30964 12.5888 7.75 11.8984 7.75Z" fill="currentColor"/>
</svg>
