<svg width="24" height="24" viewBox="0 0 24 24" fill="none" xmlns="http://www.w3.org/2000/svg">
<g clip-path="url(#clip0_10039_264)">
<path d="M23.8448 7.66815C23.8448 7.66815 23.6088 6.00167 22.8818 5.26993C21.9612 4.30686 20.932 4.30214 20.46 4.24549C17.0798 4 12.0048 4 12.0048 4H11.9954C11.9954 4 6.92038 4 3.54021 4.24549C3.06812 4.30214 2.03896 4.30686 1.11838 5.26993C0.391363 6.00167 0.160038 7.66815 0.160038 7.66815C0.160038 7.66815 -0.0854492 9.62733 -0.0854492 11.5818V13.4135C-0.0854492 15.368 0.155317 17.3271 0.155317 17.3271C0.155317 17.3271 0.391363 18.9936 1.11366 19.7254C2.03424 20.6884 3.24279 20.6554 3.78098 20.7592C5.71655 20.9433 12.0001 21 12.0001 21C12.0001 21 17.0798 20.9906 20.46 20.7498C20.932 20.6931 21.9612 20.6884 22.8818 19.7254C23.6088 18.9936 23.8448 17.3271 23.8448 17.3271C23.8448 17.3271 24.0856 15.3727 24.0856 13.4135V11.5818C24.0856 9.62733 23.8448 7.66815 23.8448 7.66815ZM9.50272 15.637V8.84365L16.0317 12.2522L9.50272 15.637Z" fill="currentColor"/>
</g>
<defs>
<clipPath id="clip0_10039_264">
<rect width="24" height="24" fill="white"/>
</clipPath>
</defs>
</svg>
