<svg width="130" height="110" viewBox="0 0 130 110" fill="none" xmlns="http://www.w3.org/2000/svg">
<path fill-rule="evenodd" clip-rule="evenodd" d="M51.9424 102.788C52.7854 102.491 58.7934 102.512 59.3711 102.844L59.3662 102.849C59.4405 102.892 59.4231 103.269 59.5693 103.274C60.323 103.311 61.3271 102.737 62.4551 103.274C64.3245 104.163 66.826 105.082 68.8789 106.293C70.039 106.977 69.9702 107.798 70.0693 107.873C70.8651 108.492 72.194 108.265 71.8125 110L66.8633 107.252L67.3545 106.881C64.5058 105.199 61.2677 104.407 58.0371 103.791C57.1123 103.613 56.5268 104.173 56.083 103.014L55.1807 104.217C53.6683 103.791 51.9447 104.352 50.5117 104.899L50.0732 104.39C50.4054 103.402 50.9285 103.574 51.5557 103.247C51.739 103.152 51.7271 102.865 51.9424 102.788ZM88.6592 105.259C89.1427 104.298 89.8345 104.663 90.5361 105.128C91.2795 105.619 90.9973 105.691 90.8857 106.512L88.6592 105.259ZM76.6143 99.7868C80.1771 100.064 83.0959 100.825 86.3389 102.385H86.3408C86.9407 102.675 87.5481 103.162 88.1133 103.497C88.3984 103.666 88.8257 103.669 89.1455 103.781L89.1377 104.498L87.7842 104.939L87.167 104.021L86.4307 104.765C86.6315 103.749 85.8551 103.689 85.5625 104.515C85.2179 103.734 84.2338 103.524 83.4033 103.197C80.0836 101.881 76.9272 101.115 73.4463 101.797C72.5736 101.966 71.5345 102.897 72.0898 100.807C73.5278 100.969 75.1416 99.6721 76.6143 99.7868ZM119.564 54.9372C120.4 54.8897 121.649 55.5164 122.708 55.1149L122.991 55.901C123.482 56.2778 124.142 55.8807 124.288 55.9381C124.539 56.0336 125.032 57.5786 125.664 56.8825C125.909 57.5709 126.22 57.1297 126.644 57.3893C126.722 57.4383 127.855 58.5401 127.897 58.6149C128.029 58.8521 127.786 59.3216 128.024 59.6911C128.189 59.9465 129.476 61.3951 129.512 61.5182C129.606 61.8453 129.237 62.3772 129.321 62.9264C129.478 63.94 130.441 64.0179 129.757 65.6657C129.664 65.8848 129.038 65.8458 129.273 66.7038C129.35 66.9859 129.881 66.6893 129.774 67.1012L128.798 67.1081C128.602 67.6124 128.979 68.199 128.297 68.1041V68.6041L128.785 68.7213L127.303 69.3473V68.1022C127.109 68.6039 126.569 69.2379 126.202 69.6149C125.805 70.0193 124.957 70.0821 125.44 70.5915L127.3 69.5973C127.632 71.8542 125.857 71.5744 124.441 72.3258C123.911 72.6079 123.39 73.3293 123.083 73.4694C122.877 73.5643 120.447 73.7316 120.856 73.0924L120.365 73.0875L120.12 73.5846L119.991 73.0807L118.387 73.8346L118.013 72.8385L117.638 73.8346C117.267 73.9239 117.452 73.5023 117.222 73.3375C116.175 72.5936 116.421 73.7148 116.017 73.8346C115.613 73.9542 115.288 73.4723 115.045 73.4596C114.249 73.4197 113.25 73.7771 112.437 73.8395L112.647 74.2965C111.257 74.5162 111.762 75.7118 111.692 75.8317C111.653 75.8953 110.627 75.4585 110.703 76.5778C112.379 76.9697 112.571 77.8739 114.418 77.1999C115.994 76.6232 115.461 76.1262 116.081 74.8981C116.25 74.566 116.865 74.5231 116.651 73.8366L118.63 74.7106L118.129 74.9557C118.022 75.5793 118.239 75.4691 118.638 75.7038L117.889 76.7057L118.362 77.1852L118.132 78.0758L117.145 77.8268C116.868 78.5028 118.082 78.2534 117.636 78.82C117.494 78.9997 115.04 80.1984 114.747 80.2409C114.53 80.2705 112.111 79.8044 111.921 79.7018C111.673 79.567 111.968 78.9846 111.568 78.8249L111.323 79.3219C110.374 78.8725 110.242 78.1058 109.719 77.4342C109.342 76.9503 108.611 77.3491 109.219 76.3307L108.227 75.9518L108.715 75.8317C108.626 74.4586 109.538 73.5472 109.501 72.3913C109.932 71.9793 110.711 71.9813 111.115 71.7516C111.312 71.6382 112.506 70.601 112.605 70.5885C112.856 70.5589 113.171 70.8134 113.438 70.7086C113.961 70.5062 114.09 69.3082 114.789 70.3415L115.047 69.8268L115.767 70.1071L115.905 69.5954C116.47 69.9575 116.627 71.0327 116.996 69.8649C117.514 70.2517 118.209 69.974 118.707 70.0963C118.905 70.1439 118.866 70.5807 119.029 70.6032C119.669 70.6879 121.347 69.5851 120.608 71.0905C121.466 70.8308 121.005 69.166 121.736 70.609C123.063 70.0848 124.243 69.5301 125.168 68.3268C127.109 65.8002 127.158 63.2756 125.515 60.5368C124.632 59.0642 124.149 58.8917 122.763 58.1178C122.589 58.0202 122.599 57.619 122.445 57.609C121.985 57.5793 121.717 57.9847 121.477 58.0026C120.113 58.1049 118.789 57.5537 117.755 59.1188L117.509 58.6227L116.864 60.1129L116.148 59.8678C116.3 61.1286 115.56 62.1401 115.144 63.2536L115.647 64.11L114.906 64.3541C115.491 64.5766 117.197 66.2041 117.152 66.7086C116.213 67.5899 114.392 69.3253 114.407 66.8512C112.751 67.47 112.729 65.7446 112.354 64.5563C112.243 64.2045 111.869 63.9097 111.797 63.6227C111.735 63.3729 112.221 62.7186 112.142 62.484C112.027 62.1379 111.477 62.7809 111.931 61.1168C111.359 61.3837 110.839 62.0852 110.761 62.1022C109.806 62.2969 108.593 61.8524 107.606 61.9323C106.166 62.0497 104.897 62.7745 103.519 63.1315L103.756 63.6081L103.134 63.3629L103.013 64.11L102.149 63.6129L101.772 64.612L101.175 64.3522L100.925 64.8385L100.042 64.609V65.6032L98.7012 65.3483C97.0698 67.6252 93.955 64.6362 91.7285 64.6012C90.8059 64.5864 88.4285 65.2305 87.6699 65.7448C87.365 65.952 87.2983 66.4168 87.043 66.6315C86.6735 66.941 86.212 66.5019 85.9219 66.9762L86.416 67.3454C85.5433 67.4702 84.5781 69.3454 84.3574 70.0944C84.0972 70.9884 84.1327 73.6971 84.6855 74.4635L84.2041 74.9176L84.4375 75.5797L84.9258 75.0827L84.9326 76.318L85.6748 76.3307L85.4268 77.3249C86.7581 76.808 88.1935 75.8868 89.0166 77.5719C89.5943 75.6595 90.6731 76.3656 92.2549 76.5778C92.8745 76.66 93.5686 76.3733 94.3418 76.8297L93.8467 77.5739C94.5902 77.3791 94.9401 77.1025 95.0938 78.0709L96.3203 77.3268C96.3203 77.8411 96.4472 78.4256 97.0645 78.3258L97.3096 77.5768C97.3442 78.1135 97.1092 79.3291 97.6865 79.569L99.293 79.0719L99.0479 79.819C100.583 79.0775 100.035 81.6786 101.277 81.8209C99.7683 82.9263 100.978 82.7151 101.031 82.9391C101.185 83.5956 100.513 83.0471 100.535 83.5583C101.874 83.4559 101.542 84.66 101.51 85.6686L100.538 87.8004C100.642 86.8892 100.917 85.7929 99.7939 85.5583C99.6799 86.14 99.71 86.8546 99.5488 87.4088C99.4099 87.8904 99.0628 88.0476 98.9141 88.4245C98.862 88.5568 99.1125 88.9566 98.9414 89.2936C98.854 89.4638 97.4274 90.6784 97.0674 90.8014L97.4414 91.2936C97.8799 91.473 97.8134 90.8222 97.9297 90.7916C98.7925 90.562 98.2719 91.4904 99.043 91.2907L99.1699 90.7985L100.652 92.0475L101.029 91.5504L100.535 91.0485C101.914 92.2094 102.924 90.8811 104.25 91.2956L103.997 90.8014C104.932 90.8787 105.722 90.32 106.471 91.0485C106.518 90.1149 107.185 90.5369 107.817 90.3024L108.207 90.7965C108.113 90.0153 110.226 90.1623 110.869 89.8854C111.293 89.7007 111.38 89.1316 112.565 89.0817C113.175 90.3818 113.451 88.9693 113.815 88.8395C114.334 88.6549 114.892 88.8617 115.375 89.029L115.64 88.5573C115.687 89.8924 116.674 88.4322 117.056 88.3473C117.131 88.3297 118.412 88.158 118.493 88.1549C118.952 88.1424 119.782 89.0109 120.596 88.3043L120.601 89.0592L122.332 88.8092C121.836 89.1013 122.024 89.9901 121.962 90.07C121.843 90.2196 121.434 90.27 121.184 90.4147C121.077 90.4749 121.089 90.7835 120.982 90.776C120.714 90.7558 120.085 90.4523 119.659 90.3649C118.732 90.1751 118.865 90.0819 118.741 90.0495C118.035 89.8552 118.191 90.4688 117.961 90.5368C117.54 90.6616 116.731 90.3424 116.389 90.0553L116.384 90.8063C115.048 90.0549 113.681 91.1405 112.472 91.4752C110.057 92.1443 106.809 93.2108 104.443 93.6403C103.697 93.7751 102.393 93.5425 101.743 93.6823C101.242 93.7921 100.766 94.379 100.414 94.4264C99.9553 94.4888 96.6305 94.2596 96.1445 94.0973C95.1875 93.7752 94.0566 92.8385 92.8467 92.7936L93.0977 92.0495L92.4824 92.5495C91.7883 92.0253 90.802 91.5756 89.9814 91.3209C89.5577 91.1887 86.7264 90.5126 86.5449 90.5368C86.4557 90.5492 85.8802 91.2312 85.0596 91.2711C84.6852 91.2886 84.3283 90.9667 83.9316 91.0514L84.1797 91.7946H82.1982L82.1963 92.5465C81.0012 91.9448 79.9987 93.0107 78.9326 93.3727C78.3724 93.5648 77.7649 93.4756 77.2344 93.6579C75.3402 94.3072 72.8084 96.8056 70.8027 97.6569L78.8535 95.9245C82.0568 95.7996 85.0078 95.4057 88.2285 95.4381C88.8883 95.4453 90.4153 94.7169 90.626 96.0348C91.7144 94.7515 93.3732 95.9972 94.8633 95.6676C95.4977 95.8774 95.8643 96.3445 95.8271 97.0309L96.3154 96.9108L96.0732 96.2838C96.5612 95.8781 101.261 97.6174 100.533 99.2721C100.957 99.3869 100.638 98.7808 100.917 98.7653C101.083 98.7553 101.371 98.9876 101.639 98.9752C104.173 98.8654 106.325 100.726 108.038 101.949C108.214 102.074 108.492 102.024 108.705 102.016L108.457 102.76L109.459 102.638C109.873 102.704 109.991 104.181 109.925 104.238C109.793 104.345 109.052 104.061 109.193 104.753H108.953C108.965 104.086 107.85 104.143 107.131 103.716C105.814 102.935 104.277 101.555 102.842 100.803C101.905 100.312 100.831 99.6621 99.7822 99.7643L100.032 99.2702C98.9215 99.3276 98.1029 98.5281 97.0566 98.1461C96.4816 97.9367 95.8048 98.0392 95.1777 97.7946C94.7538 97.6298 94.394 97.1076 94.1709 97.0602C93.7916 96.9831 93.3233 97.5777 92.7656 97.6901C91.6276 97.9223 89.5866 97.1324 88.2998 97.5319L88.0176 97.0231C86.6788 97.7521 84.7696 97.6993 83.2969 97.8815C79.3051 98.3733 75.1988 98.6709 71.4004 100.024C70.8876 100.086 70.8898 99.0528 70.082 98.8854C69.6358 98.793 67.7565 99.4642 66.9854 99.07L66.4492 100.279C64.6989 100.114 63.293 99.5497 61.4658 99.36C59.0707 99.1129 54.858 99.4644 52.8721 99.025C52.6201 98.9693 52.9635 98.2217 51.9229 98.7956C51.727 98.9029 51.7242 99.2148 51.5605 99.2448C51.1365 99.3244 50.3557 98.8854 50.1152 98.8854C49.6589 98.8856 48.397 99.6116 48.1367 99.6491C47.564 99.7289 46.4809 99.2627 45.9404 99.3424C44.2571 99.5946 41.8844 100.79 39.9258 100.98C38.4481 101.122 37.2025 100.713 36 100.748C35.2563 100.77 34.3515 101.27 33.6426 101.509C33.5707 99.7893 35.4604 100.241 36.2588 99.2653L35.8691 98.2711C35.9575 98.1407 38.0878 97.1609 38.4229 96.9635C38.7353 96.7813 38.7802 96.4167 39.0381 96.2819C41.2497 95.1235 44.4655 94.9082 46.0547 93.0583L46.8623 93.2926C47.2292 92.3193 47.6782 92.8608 48.0947 92.7584C48.2063 92.7309 48.3655 91.9295 49.248 92.279L49.4932 92.776C49.2677 91.8377 49.9045 92.137 50.207 91.8727C51.6004 90.6594 53.2937 89.5504 55.1953 88.9137C55.9887 88.6491 58.0819 88.05 58.8232 88.0475C60.571 88.043 61.687 92.4111 62.6191 93.4049C63.2365 94.0615 64.3815 94.1897 64.6592 95.443L66.4668 96.1666C68.1478 95.3578 70.0914 94.7709 71.4922 93.61C73.0243 92.9859 74.3807 91.9226 75.8311 91.236C76.7806 90.7866 78.673 89.9579 79.5879 90.2799L79.7168 89.5358C80.6686 90.0548 81.0903 89.4079 81.834 89.2956C83.599 89.026 84.4222 88.8637 86.2764 88.8063C86.9879 88.7838 87.8862 88.5544 88.4912 88.5944C89.5696 88.6669 90.3656 89.3781 91.2383 89.0661L91.5996 89.4079L91.1094 90.0299L92.0957 89.5329L92.6113 91.2731C93.2733 91.0659 93.7522 91.5675 93.958 90.776L94.9844 91.4752L96.3086 91.026L95.0713 90.776C95.7452 90.3441 95.2569 89.5703 95.3164 89.5329C95.4081 89.473 95.8739 89.613 96.1318 89.526C96.3425 89.4537 96.2563 89.1764 96.4395 89.0963C96.4965 89.0714 96.8138 89.3131 97.0469 89.1735C98.1477 88.5169 98.634 85.6957 98.4902 84.4948C98.1729 81.8684 96.9952 79.7385 94.3301 79.0543C94.7339 78.5429 94.7809 78.4502 94.5752 77.8112C92.7307 78.9995 90.9903 77.9438 88.9971 78.0485C87.0038 78.1533 87.8042 78.4656 87.1523 79.192C85.5334 80.9996 83.9509 82.4373 82.4336 84.1549C81.7419 84.9389 80.6187 85.1819 79.8848 85.529C79.729 85.6043 79.7139 85.9857 79.6768 86.0006C79.523 86.0603 79.253 85.7262 79.0225 85.8385C78.9655 85.866 78.985 86.237 78.8018 86.2897C78.3059 86.4245 76.0445 86.3369 75.4346 86.2321C73.7734 85.9499 71.0983 83.6512 69.5537 84.4176C69.0727 84.6573 65.9985 89.2353 65.4775 90.0397L62.624 92.5241C61.5455 90.7614 63.1424 90.1547 64.0176 88.819C64.5357 88.0276 65.1007 87.0089 65.6064 86.1676C65.7924 85.8606 65.4355 85.4541 66.082 85.5387V85.0446L65.5938 84.9196C66.3822 84.258 66.7125 83.0098 67.8232 82.7926C65.5299 80.0864 67.4189 78.6155 68.5693 76.0641L69.5537 76.5631L69.3086 75.317C70.481 75.0204 70.9623 76.2039 72.2861 75.3102L72.0332 74.5709C74.6017 73.6922 76.9846 73.2401 79.4316 74.7331C80.3239 75.2773 80.5545 76.0805 81.583 76.0358C82.235 76.6599 81.9752 77.3318 81.3232 77.8112C80.8025 76.9074 79.4683 76.4211 78.4766 76.0641L78.9697 75.8141L78.5986 75.3219C78.0333 76.0434 77.8467 75.7788 77.2393 75.3219C77.3186 76.2107 76.6765 75.6064 76.2129 75.7038C74.3857 76.0907 72.6526 76.7978 71.8691 78.5729L70.7959 78.5631C70.6223 78.3959 71.1626 76.2559 70.4287 76.568L68.8145 78.6979L69.3203 78.9499C68.465 80.7074 70.2232 80.4577 70.2852 80.5651C70.367 80.7049 70.263 81.2221 70.5332 81.694C70.6419 81.8802 72.3331 83.2795 72.457 83.2995C73.5924 83.4917 73.7909 83.7236 74.7578 83.9508C75.8437 84.2054 78.0649 83.5462 79.0518 83.0319C79.3642 82.8696 81.631 81.0568 81.8467 80.8122C82.1935 80.4175 82.2458 79.4539 82.6846 78.9323C83.0491 78.498 83.8397 78.2528 84.1719 77.6862C84.3252 77.2222 83.8045 77.347 83.7549 77.2721C83.6785 77.1547 83.9756 76.8452 83.7109 76.4362C83.2672 75.7521 82.5301 75.7943 81.9004 74.4938C81.2459 73.1407 81.4869 73.4324 82.1934 72.3317C80.3165 72.3117 81.8854 70.1565 82.0664 69.068L82.6846 69.0856C82.154 67.8424 82.7561 68.2342 82.9297 67.9098C83.2495 67.3156 84.5015 65.1757 84.9775 64.901C85.2131 64.7662 85.5924 64.9261 85.8379 64.7838C86.1974 64.5766 86.6809 63.7999 87.5908 63.4254C88.0446 63.2382 90.3324 62.4328 90.4893 62.4C90.8735 62.3202 92.306 62.5592 92.8418 62.4645L93.2119 63.5983C93.5119 61.7109 94.5332 62.105 95.0762 63.5954H95.3164C95.2495 62.9915 95.5099 63.0608 96.0625 63.0983V63.8473C98.7625 63.8873 101.17 59.9533 103.667 59.9108C103.992 59.9058 104.163 60.2945 104.478 60.2272C104.778 60.1648 105.554 59.5933 105.852 59.3561L106.097 59.8659C106.568 59.5313 108.586 59.3042 109.069 59.404C109.213 59.4339 109.159 59.7926 109.364 59.8454C110.262 60.0775 111.229 59.9309 112.164 60.61C112.24 60.7051 111.961 60.9442 111.916 61.1012L111.945 61.1188C113.197 60.5322 112.739 59.5612 113.257 58.695C113.676 57.9959 115.662 56.2153 116.476 55.8258C116.903 55.621 119.138 54.9623 119.564 54.9372ZM62.2119 95.8522C55.969 93.0186 48.9303 94.614 42.8857 97.2155C42.5808 97.3478 42.1539 97.348 42.0869 97.7799C42.9571 97.9772 43.6988 97.3948 44.46 97.3024C50.8939 96.5209 55.3024 97.0303 61.543 97.5446C62.0267 97.5845 63.8388 97.5872 64.2627 97.5348C64.6048 97.4924 64.9987 97.3703 64.6318 97.0358L64.6299 97.0377C63.5935 97.1551 62.9508 96.1892 62.2119 95.8522ZM60.168 92.7907C59.2611 89.1911 58.8541 88.8093 55.4688 90.1793C54.5216 90.5638 53.6953 91.1934 52.7383 91.5504C52.2184 92.3042 56.2867 92.0401 56.5371 92.0651C57.754 92.1899 58.9808 92.5061 60.168 92.7907ZM22.5547 60.9118C24.8028 59.9733 27.3632 60.4767 29.6709 61.153L29.7002 61.8659C30.1513 61.9656 29.8565 61.4462 29.9482 61.3688C30.3127 61.0617 30.2978 62.26 30.335 62.3424C30.754 63.2662 31.6563 64.8442 31.8125 65.8454C31.8914 66.365 30.3716 68.2466 30.0146 68.3415C28.6957 68.6934 26.9553 68.8686 25.6562 69.1881C25.3315 69.2681 25.1452 69.7146 24.7461 69.5973L24.2998 67.153C25.1331 66.0421 30.5106 65.9949 28.666 63.029C28.4278 62.6471 26.5818 62.3201 26.1104 62.3649C25.6393 62.4098 25.1156 63.2213 24.9941 63.1139C24.9026 63.0338 25.1972 62.517 24.7461 62.6168L24.7168 63.3307C23.6507 63.0835 23.2907 64.2596 22.7676 64.4743C22.5444 64.5664 22.1972 64.3118 22.0684 64.3942C21.7337 64.6091 21.5034 66.2566 20.0361 65.8551L20.5312 65.111C19.7059 64.9713 19.4455 65.4083 19.5273 66.2096L20.0361 66.6012C18.9502 66.3141 18.6724 67.7446 17.8096 66.9782L18.7988 65.8581C17.7525 65.888 17.2166 66.5889 16.0811 66.7487C15.7116 66.8011 15.4336 66.6196 15.084 66.6071L15.6992 67.6051C14.8538 67.4953 14.0034 66.9736 13.3018 66.5192C12.382 65.9276 11.4624 64.3326 10.498 65.6051L10.0088 65.109L7.89941 66.8493C8.61087 66.7843 8.82423 66.1421 9.56055 65.9049C9.77397 65.835 10.4484 65.6734 10.374 66.1002C9.76162 65.9779 9.95427 66.6417 9.81543 66.7741C9.62687 66.9535 9.20061 66.9037 8.87598 67.2106C8.4892 67.5776 8.16685 68.544 8.14453 69.0983L7.1582 68.5993C7.08658 69.1607 7.74765 69.343 7.66113 69.9518C7.64379 70.0765 7.27999 70.0744 7.2373 70.1715C7.034 70.6484 6.41638 72.0095 6.48828 72.4264C6.54293 72.7435 7.07385 73.0858 6.90527 73.5875C6.5904 73.7348 6.62718 72.5287 6.16602 73.0905C6.02257 73.2658 6.51091 74.6602 6.68945 74.9401C6.87788 75.2372 7.31903 75.2976 7.37109 75.3825C7.42781 75.4811 7.14101 77.1771 7.67871 77.569C7.77281 77.6363 8.12649 77.4076 8.26074 77.4518C8.65494 77.5866 8.90585 77.9436 9.31738 78.026C9.72889 78.1084 10.3512 77.7941 10.8594 78.0709C10.8891 77.8413 10.8724 77.5339 11.0137 77.3541C12.1988 75.8288 13.8651 74.0218 15.6104 73.2379C15.8237 73.143 16.9132 72.6627 16.9932 72.6413C17.918 72.3741 19.2943 72.6588 20.1299 73.1256C20.8239 73.5126 20.9631 74.456 21.9941 73.8698L22.7627 75.3327C23.0999 74.8833 22.7779 74.1165 22.8398 73.8893C23.1076 72.9207 25.9658 70.8688 26.9727 70.4616C27.5008 70.2469 28.294 70.626 28.2295 69.8571C28.5468 70.0169 28.7163 70.2244 29.1006 70.3268C29.7858 70.5118 32.9536 71.2779 33.3105 71.1256C33.4029 71.0858 34.8278 70.0316 34.8848 69.9518C35.4053 69.2226 35.8767 67.4877 36.3428 66.6764C36.5094 66.3862 37.8034 64.4743 37.9238 64.402C38.3449 64.1526 39.2439 64.7379 39.3643 64.6071L39.1416 63.6383C41.0333 62.5897 42.5435 61.806 44.6807 61.3317C45.3029 61.1944 45.9328 61.4356 46.4336 60.8639L46.6914 61.3708C47.8219 60.969 49.5124 61.4515 50.4941 62.0231C50.7446 62.1704 51.2486 63.0436 51.3105 63.0661C51.5833 63.1657 51.9425 62.7773 52.2549 62.9645C52.3694 63.0357 52.9537 64.1266 53.0928 64.3942C53.4374 65.0532 52.9268 65.3606 54.0967 64.8415C54.5771 66.1605 54.7809 64.8296 54.8506 64.8561C55.3861 65.6725 56.1796 64.7816 57.1094 64.6393C57.501 64.5794 58.8593 64.5845 59.291 64.612C61.2001 64.7293 62.8962 64.9889 64.5127 65.5407C65.0953 65.7404 66.0842 65.4532 65.876 66.6041L66.6182 66.3522L66.8711 66.9811C66.4769 67.1858 66.251 66.9811 66.375 67.6002C67.3195 67.1935 68.4473 68.057 67.8604 69.0954L68.5986 68.8483C68.7573 69.3974 68.3587 70.0267 68.3809 70.4811C68.3957 70.8057 68.7351 71.0807 68.7822 71.5651C68.8788 72.5164 68.2338 74.6054 67.5322 75.2545C67.2992 75.4717 66.5506 75.7844 66.1787 76.0016C65.9533 76.134 65.8835 76.4686 65.8066 76.5036C65.2579 76.7583 62.864 77.3922 62.3037 77.3249C61.7434 77.2574 61.2297 77.1371 60.5801 77.0622C60.4121 77.0416 60.4042 76.6886 60.2236 76.6061C58.3542 75.7697 58.1115 75.3497 57.209 73.4547L57.707 72.8434C58.4458 73.3952 58.6196 74.5034 59.5518 74.8629C60.3897 75.1849 60.7719 74.6828 61.4189 74.5055C61.694 74.4309 62.016 74.6003 62.2217 74.528C63.6001 74.0412 65.6823 70.6793 65.2588 69.3659C64.6191 67.3961 60.8981 66.7913 59.1055 66.8737C58.4485 66.9036 56.7377 67.6551 56.4648 66.9762L56.958 66.6071C56.5415 66.5522 56.1623 66.6642 55.7656 66.7741C54.2533 67.1935 54.2677 67.2483 54.2256 68.6989L53.2393 69.1012C53.9972 70.3841 51.4019 70.5539 51.5059 71.8395L51.2578 71.3424C50.4075 72.1412 49.4012 71.8472 48.9053 70.8463L48.29 71.3424C46.9914 68.1947 50.6824 68.5613 51.2627 66.3571L51.7393 66.4997C51.2831 63.8857 49.3516 63.2812 46.9863 63.4235C44.8516 63.5508 44.4544 64.13 42.8701 65.0163C42.1285 65.4308 39.8536 66.377 39.4766 66.8463C39.298 67.0685 39.7662 67.7803 39.124 67.8502L39 67.3532L38.3809 67.9772L38.874 68.3463C37.7442 68.1792 38.382 68.6607 38.2344 68.8532C38.0955 69.0329 37.7403 69.0408 37.6709 69.1432C37.6268 69.2099 37.8375 70.18 37.6592 70.7262C37.5228 71.1431 37.2347 71.0685 37.1504 71.2907C37.0664 71.513 37.2125 71.9967 37.1309 72.0817C37.0664 72.1491 36.5257 72.024 36.2158 72.1588C36.02 72.2437 35.3085 73.5198 34.416 73.0856L35.1572 72.8356L34.7881 72.3463C34.0542 72.9081 33.3147 73.0803 32.4346 72.8356L32.9287 72.3415C31.9891 72.9531 31.0862 72.0067 30.5928 72.069C30.3697 72.0964 30.4216 72.6704 30.0947 72.7506C29.0608 73.0078 28.1454 72.137 27.3545 73.8297C26.5202 73.209 27.9433 72.3066 27.9795 72.2145C28.3142 71.2983 27.3076 71.445 27.1934 72.3161L25.998 72.0944C25.8516 73.1229 24.8055 74.0968 23.7617 73.5875C23.9669 73.8689 23.7831 74.7381 23.8164 74.7926C24.1387 75.237 24.779 74.8458 24.2559 76.3288L25.2471 76.2086C25.3338 76.708 24.7807 78.2409 24.498 78.6354C24.2302 79.0071 23.6129 78.7827 23.5088 79.3219L24.2188 79.1295L24.3545 79.5543C25.4404 79.3421 25.7458 78.5182 26.9756 78.8278L26.6035 79.5719C27.4042 78.6159 27.7241 78.9152 28.5518 78.7282C31.3559 78.089 33.6327 77.9789 36.5137 78.1012C37.0169 78.1211 37.4709 77.8344 37.9717 77.8444L38.8662 78.8278V77.8288C39.6446 78.1383 40.396 77.7339 41.2314 77.8112C43.1008 77.9834 42.6003 77.7564 44.2041 77.5817C44.9157 77.5043 45.6872 78.0136 47.1426 77.8014C48.987 77.5318 50.4894 77.612 52.3115 77.275C52.8197 77.1802 53.2862 76.8077 53.8291 76.8151L54.1074 77.3444C54.5394 77.1269 56.0333 76.3963 56.207 77.2096C56.2293 77.3168 55.1287 79.0161 55.0322 79.0749C53.9913 79.6688 53.4998 78.8205 53.1602 78.8698C51.437 79.1219 50.321 78.9874 48.9326 79.1471C47.988 79.2545 46.2773 79.7291 45.4219 79.819C44.5665 79.9089 42.4313 79.5388 41.752 79.6461C41.4099 79.7013 40.9934 80.241 40.7207 80.3258C40.5723 80.3702 40.6535 79.8838 40.4404 79.8239C39.5231 79.5695 38.1079 80.5773 38.1055 79.6012L37.6338 79.5768C37.4701 80.8721 36.5756 80.0142 35.7725 80.0514C34.3271 80.1213 32.3038 80.0708 31.0566 80.1881C30.2509 80.2655 29.7969 81.1869 28.5996 80.3034L28.3438 80.8229C27.8801 79.9141 26.4229 81.2318 26.4824 80.0758H26.2412C26.3577 80.8947 25.6634 80.4532 25.165 80.568C24.8906 80.6307 25.1081 80.9969 24.873 81.0719C24.1317 81.3116 24.833 80.0165 24.2578 80.0739C24.1362 81.3091 23.3577 80.5127 22.7578 80.6725C21.657 80.9697 20.2685 82.0803 18.9297 81.0592L18.6543 81.5866L15.6992 81.5114L15.3672 80.985C15.7912 79.7592 16.2128 80.4056 16.5674 80.2008C17.0681 79.9108 17.5336 78.1817 17.9277 79.5739C18.7434 79.0022 20.8713 78.5055 20.2939 77.3297C20.7548 77.5169 20.9359 77.7138 21.2705 77.2096C21.3842 76.1883 19.2397 73.6025 18.1836 74.8307L17.3203 74.0895L17.8145 75.3327C16.4508 74.736 16.4105 76.2059 15.3369 76.3307L15.833 75.5866C14.9953 75.3797 15.0129 76.5435 14.7725 76.7633C14.4849 77.0279 13.7008 76.7705 13.832 77.8288L13.0986 77.694C12.5333 79.6339 11.0429 80.2454 9.13379 80.4801C8.23398 79.6016 7.10115 79.0375 6.15918 78.2165C5.55174 77.6872 5.42708 76.6754 4.35352 76.653C4.00404 76.6456 3.52369 76.8278 3.69434 77.3317L4.68066 77.2077C3.26011 78.4108 1.79287 78.9306 1.09375 80.8229L0 79.9186C0.458622 79.5541 0.178854 78.6354 0.233398 78.5905C0.318144 78.5235 0.736112 78.6725 0.912109 78.5231C1.02863 78.4232 0.936922 78.0185 1.04102 77.9186C1.4154 77.5616 2.00821 77.332 2.33301 76.8327L3.19336 77.5797L2.9502 76.3336L3.68945 76.5836C3.84069 75.228 5.42752 75.3671 4.4209 73.4772L4.89648 73.2301C4.55441 71.7997 5.02592 69.8377 5.7002 68.5045C5.85384 68.2026 7.72142 65.5832 7.8916 65.4909C8.29078 65.2787 8.71034 66.132 8.68555 64.9186C9.7616 64.9232 11.4246 63.3738 11.9824 64.612L12.8428 64.1178C13.1132 65.4705 14.7549 64.1976 14.7129 66.1071L15.0889 65.361C15.2104 65.2761 15.6227 65.8306 16.0938 65.7458C17.4077 65.5084 19.3237 63.2088 20.4121 62.3698C21.5873 64.1299 21.2978 60.6822 22.7656 61.3688L22.5547 60.9118ZM95.5967 50.3151C97.7041 49.1991 100.484 48.8651 102.77 49.4069H102.768L102.544 51.0397L100.801 51.1442L102.284 51.6383L99.4521 51.3815L99.1748 51.901C98.0567 51.2944 96.4746 52.2922 95.5176 52.9313C93.9878 53.9524 91.7517 56.3248 92.5674 58.3122C92.9072 59.1358 94.0577 59.3062 94.085 60.4645C93.7031 61.2307 92.7338 60.8387 92.751 61.8668C88.7594 58.6089 89.7853 54.5824 93.5312 51.6813C93.8907 51.4017 95.2221 50.5149 95.5967 50.3151ZM29.6729 61.154L29.6709 61.153V61.151L29.6729 61.154ZM95.2148 0.000635083C95.9808 0.0731096 95.8866 0.692323 96.1816 1.16665L96.1865 1.17446C96.2859 1.33381 96.6875 1.11981 96.5859 1.50161L96.0928 1.74868C97.3988 1.85129 96.4689 3.12412 96.6201 3.88052C96.6918 4.24163 97.1242 4.67481 97.0771 4.73892C97.04 4.78885 96.2484 4.70942 96.6426 5.62564C96.7293 5.83032 97.2919 5.58568 97.084 6.24185L96.335 6.36685L96.7119 6.7438L96.0996 7.01138L96.4668 8.24966L95.3457 9.11099C96.1416 9.23582 95.8543 10.2722 95.5469 10.819C95.3658 11.1433 94.9568 11.1907 94.9072 11.2731C94.8678 11.3411 95.197 12.2816 94.3545 12.6061L94.8457 12.7262V13.7272C93.2019 13.5 94.2353 14.5136 94.2676 14.8532C94.2899 15.1028 93.1027 16.613 93.6084 17.4694L93.1172 17.2174L93.1123 18.7155L92.3662 18.8424L92.877 19.5846C97.8628 19.3976 102.062 24.7549 98.7969 29.2438C97.4234 31.1335 96.4962 30.9394 94.5996 29.9333C94.2922 29.4839 95.9857 28.6098 96.3057 28.2877C98.0065 26.5726 98.3259 24.5274 96.1738 22.987C95.0728 22.2007 92.091 21.6665 90.9033 22.3502C90.1744 22.7697 87.806 25.3545 87.6895 26.111C87.5844 26.7973 90.4955 27.563 91.1309 27.693C90.9651 26.2325 92.7402 24.0528 94.0293 23.4811C95.4053 22.8719 95.6112 23.5219 96.5781 24.3258C95.0558 25.6014 92.8539 26.0608 92.3506 28.2926C94.805 29.5858 96.5191 32.0749 96.0879 34.9284L96.5781 34.6764C96.4715 36.5164 96.6376 37.8849 95.9434 39.65C95.5119 40.7459 94.7805 41.68 94.1855 42.4938C93.6353 43.2478 93.2534 44.6604 92.123 44.1588C92.6162 44.8379 91.7414 45.4125 91.1836 45.8893C89.6514 47.2 89.6683 46.5878 88.4238 47.0221C87.5065 47.3417 85.6712 49.681 83.8018 49.8932C83.341 49.9454 82.8432 49.6191 82.5977 49.6735C82.3373 49.7334 82.3389 50.243 82.0166 50.3903C81.4064 50.6646 79.8204 50.3506 79.1064 51.1393L78.8779 50.6374C77.2167 51.3238 73.3096 51.0124 71.5518 50.5231C71.0906 50.3958 70.6315 49.9006 70.0762 49.8756C69.9442 49.696 70.9335 47.9092 69.8262 48.1461C69.9623 49.0546 69.0431 48.7181 69.5811 49.6393C68.4306 49.4995 68.8464 50.2533 68.6084 50.528C67.9565 51.2743 67.3883 51.7786 66.4463 52.4625C66.0029 52.7847 66.2951 53.4115 65.1201 52.8874L65.3662 53.8834L64.374 53.736L63.5264 55.3112C61.9868 54.3276 61.285 56.1896 60.1719 55.1315L60.167 55.6256L59.7969 55.6305L59.666 55.1393L59.3008 55.1266L59.041 55.6461C56.1377 54.9346 54.2877 54.0102 53.5762 50.8844C53.1225 51.0367 52.6417 51.0093 52.1855 51.1491C51.0971 51.4861 49.2672 52.5198 48.335 52.8668C47.8168 53.0591 46.4234 53.3709 46.4209 52.6344C44.4994 54.2522 41.5961 54.5949 39.1465 54.9918C38.7424 55.0567 38.2638 54.8141 37.7754 54.8815C36.9796 54.9939 36.3276 55.7903 35.3955 55.3786L35.8916 56.1227L34.666 55.6432C34.324 57.0208 33.3581 55.6489 33.2607 55.6354C32.5938 55.5555 31.2419 55.7506 30.4287 55.5084C26.8689 54.4573 28.6912 51.4136 31.1035 50.1803C34.3316 48.5301 38.4752 47.9634 41.8867 46.82C43.8935 46.1478 54.3305 41.2908 54.9619 39.7799C55.2446 39.1008 53.9182 39.3754 53.7744 39.318C52.837 38.9482 49.7604 36.0725 48.7637 35.0514C48.3249 34.5996 47.7848 33.4161 47.1602 33.4157C46.5453 33.4381 46.2073 34.379 45.8057 34.5338C45.5651 34.6259 45.132 34.3472 45.0625 34.4245C45.0179 34.4744 45.114 34.8642 44.9727 35.0739C43.9405 36.5867 38.1085 39.0154 36.2734 38.901C35.7307 38.8661 34.1221 37.8579 33.7891 37.4108C31.2849 34.0328 37.5303 33.0289 39.4395 31.8854C40.9765 30.9641 42.1094 29.3087 43.582 28.2926C42.9448 25.8784 38.6059 21.6312 38.6406 19.3268C38.6557 18.2985 39.4638 17.7396 40.4355 18.2487C42.9842 19.5818 44.8537 22.7628 47.6553 23.9538C48.8007 22.6331 50.2018 21.5168 51.377 20.2086C52.5522 18.9004 53.1057 17.1573 54.8438 16.4557C55.1562 17.3944 56.8341 17.1428 57.4316 17.5797C58.8226 18.6009 57.8458 20.4061 57.2656 21.6344C57.1759 21.825 56.5859 22.8721 56.457 23.0768C56.0331 23.7534 55.193 24.1082 55.2178 24.942C57.2434 24.992 59.1701 25.5562 61.2949 25.4489C66.3452 25.1966 68.7156 22.6627 71.8271 19.0875C73.8007 16.8181 75.1199 14.5307 76.8604 11.692C77.5051 10.6412 79.0613 9.28838 78.7471 8.23501L79.4463 8.19985C79.7041 6.73433 80.7454 5.19826 81.6182 4.01235C81.8273 3.73144 83.1071 1.85488 83.4521 2.24478C83.8885 5.56266 81.7494 7.97217 80.2891 10.6559C79.0271 12.9752 77.8395 15.7393 76.2627 18.0211C75.1594 19.6164 73.1634 21.1795 72.1543 22.7897C71.9931 23.0469 72.0351 23.3697 71.8145 23.5719C73.4582 23.5669 75.2458 22.7277 76.8994 22.82C77.5465 22.8549 77.9661 23.3543 78.8066 23.1471C80.5968 22.7048 84.3156 17.829 85.2354 16.1364C85.5577 15.5422 86.0629 14.8859 85.6787 14.2194H86.4277C86.4228 13.9622 86.2241 13.7243 86.3184 13.4596C86.4772 13.0126 87.1764 11.9773 87.3525 11.5329C88.4335 8.81902 89.8919 3.33628 91.9473 1.31899C92.0109 1.25779 93.1912 0.329504 93.2754 0.29751C93.4341 0.240087 95.0611 -0.0143447 95.2148 0.000635083ZM112.314 42.6637C115.768 42.8809 119.986 46.3313 120.96 49.5495L120.958 49.5514C120.98 49.6238 121.312 49.5669 121.377 50.0036C121.424 50.3256 121.55 51.5996 120.992 51.3874C120.063 51.0351 119.416 49.245 118.736 48.4186C117.72 47.1828 116.054 45.979 114.425 45.8991C114.351 45.0931 116.671 46.4412 115.912 45.525C113.589 44.4191 109.912 44.7758 107.966 46.5084C107.054 47.3224 106.731 49.3993 105.757 49.8961C106.491 50.8198 105.824 52.47 106.724 53.4762C107.091 53.8857 107.746 53.1947 107.426 54.443C107.349 54.7399 106.962 55.0044 106.989 55.3786C106.37 54.8048 105.722 55.2216 105.088 54.9499C104.937 54.8849 103.518 53.5963 103.511 53.4889C103.476 52.9947 103.925 52.7101 104.002 52.2458C104.071 51.8288 103.781 50.7976 103.865 50.5055C103.962 50.171 104.683 50.1682 104.703 49.4791C104.713 49.1497 104.238 48.6084 104.316 48.279C104.354 48.1242 105.221 47.6523 105.341 47.3278C105.46 47.0032 105.296 46.5634 105.4 46.3961C105.481 46.2673 107.034 44.501 107.26 44.3014C108.534 43.1906 110.644 42.559 112.314 42.6637ZM82.9619 26.4499C77.0387 25.1366 72.0497 26.2777 67.6885 30.527C66.2307 31.9451 65.3309 33.9675 64.126 35.4879C62.8194 37.1331 61.1087 38.546 59.7773 39.7643C59.2145 40.2811 59.2191 40.8412 58.21 40.6989L58.1885 41.4176L57.1885 41.2731C56.9184 42.1515 56.9278 42.4439 56.0801 42.9157C55.8372 42.5762 56.1074 42.2809 55.4678 42.4157L54.8438 43.6618L54.5977 43.1647C54.1911 43.3445 54.4787 43.7567 54.3994 43.859C54.154 44.1661 52.8745 44.6634 52.4307 44.9206C49.158 46.8304 45.2431 48.3005 41.5391 49.4713C37.8349 50.6423 34.1406 50.9225 31.0166 53.0846C30.796 53.2365 30.558 53.0448 30.6943 53.6413C36.3175 53.6438 42.3899 52.0629 47.666 50.153C50.9089 48.9796 54.3281 47.4621 57.1768 45.5124C58.9867 44.274 60.4693 42.5162 62.6016 41.7448C66.5883 40.3019 70.0814 44.0392 69.8359 47.904C77.5889 49.4094 86.3087 48.1282 91.627 41.7868C94.7063 38.1142 95.7253 32.7492 90.8633 30.1002C90.3673 29.8306 87.7001 28.9442 87.3428 29.0065C87.075 29.0539 86.832 29.4461 86.6064 29.5036C83.6289 30.245 80.629 31.4657 78.2588 33.5602C77.1232 34.5639 74.8765 38.8059 73.3418 36.7711C70.9666 33.6179 77.2048 29.6406 79.5205 28.3473C80.5864 27.7533 81.7762 27.4985 82.6514 27.0143C82.939 26.857 83.0685 27.0239 82.9668 26.4596L82.9619 26.4499ZM55.3438 48.403C55.1156 49.4965 54.4843 51.1091 55.6396 51.8356C57.6949 53.1287 60.5358 53.2536 62.8936 53.3834C62.2242 52.6922 61.3791 52.5223 60.6553 51.776C59.071 50.1432 58.6563 47.9581 59.6729 45.9059V45.904L55.3438 48.403ZM63.3896 44.4108C63.1442 45.342 64.7336 44.6431 64.875 45.402C62.9634 45.7365 62.1502 48.2261 60.6973 49.1823C61.6967 53.0291 66.9257 49.6959 67.124 47.0221C67.2305 45.5819 66.4891 45.0375 65.8223 43.9518H65.8193L63.3896 44.4108ZM120.616 46.2809C121.977 43.4497 125.322 42.6411 127.546 45.0329C128.47 46.0264 127.896 46.3309 128.106 46.8327H128.108C128.136 46.9001 128.821 47.3866 128.786 48.028C127.497 48.6172 127.476 47.1541 126.916 46.4176C126.162 45.4244 125.614 45.614 124.454 45.654C123.767 45.6765 123.445 46.2931 123.217 45.4069C122.624 45.8912 122.228 46.3207 122.347 47.152L120.616 46.2809ZM40.4727 20.7125C40.1679 20.5806 40.0073 20.7707 40.1064 21.0827C45.1963 27.0345 48.9103 34.4591 56.4521 37.6823L56.207 38.6686C61.0219 36.8485 62.738 30.907 66.3604 27.569C64.2306 27.5066 62.3183 28.2173 60.1191 28.1149C56.891 27.9651 50.1455 27.2362 47.4404 26.0504C45.8785 25.3664 44.785 24.8044 43.4561 23.6959C42.7718 23.1267 40.9586 20.9223 40.4727 20.7125ZM44.9355 30.445C44.5679 30.4463 42.542 32.8699 42.1494 33.1881C40.6172 34.434 37.0937 35.6531 35.1523 36.1774H35.1494C35.0827 36.5043 35.2518 36.8033 35.5615 36.8981C36.0475 37.0454 39.2034 35.6925 39.915 35.3629C41.0357 34.8461 42.9032 33.8478 43.9023 33.1413C44.2151 32.9187 45.851 31.5803 45.7939 31.3307L44.9355 30.445ZM20.4727 3.5436C22.5775 3.1742 24.234 4.32026 26.0811 5.01431L28.2402 9.4479V9.45767C32.4353 10.3365 36.1172 3.59614 39.1123 9.36587L38.6016 9.62759L38.8613 10.734L38.123 9.98696L37.7539 10.9831L36.8779 9.73794L36.0127 10.484L35.8916 9.73794L34.5205 10.487L34.4014 9.99478L34.0391 9.98696C33.8209 10.4886 33.39 10.666 33.0801 10.9879C32.9908 11.0778 33.1521 11.3907 33.1074 11.4381C32.6833 11.9049 30.9033 12.1244 30.5264 12.9831L27.7246 12.4616C27.6601 12.3617 27.9727 11.9566 27.8438 11.7194C27.6471 11.3569 25.907 9.85194 25.5352 9.32778C23.9016 7.02613 24.8781 5.79068 21.5439 6.59439C21.115 6.69924 20.9034 6.20019 20.6455 7.00161L19.7959 6.74185C20.0881 7.66822 19.0836 9.52778 17.9531 9.47036L17.8125 9.98013H18.5557C17.8991 11.47 18.7593 11.1705 19.2998 11.8493C19.6369 12.2736 20.2761 13.1898 20.4697 13.6618C20.859 14.608 20.579 16.234 21.0303 17.028C21.2064 17.3397 21.6552 17.033 21.5312 17.5846L21.0205 17.8493C21.4221 18.9329 21.2905 20.9154 20.9707 22.0114C20.8292 22.4906 20.2643 22.8804 20.1602 23.1999C20.0738 23.4668 20.4405 23.649 20.4355 23.8112C20.4181 24.2756 19.4785 25.6485 19.6816 26.4499L19.0547 26.4372L19.3018 27.6833L18.0625 27.9381C17.8816 28.7743 18.7644 28.1105 18.5586 28.9293C17.8768 28.8619 17.586 29.2335 17.3232 29.8102L18.0596 29.9303C18.3496 30.2998 16.7406 32.7768 16.0811 31.9206L15.8438 32.819L15.0898 32.6745L15.583 33.4186L14.5938 33.1706L14.5664 34.1422C13.1534 34.7487 12.3972 34.2621 11.1826 33.985C10.6669 33.8677 10.5029 34.2096 9.83105 33.6754C9.38733 33.3235 8.81233 32.4246 8.20996 32.0475C9.09206 31.3461 7.4535 30.889 8.64844 30.5495L8.63574 30.1823L8.13965 30.0172C8.35553 27.1738 10.4261 25.0315 13.2549 24.7194C15.4862 24.4722 16.049 25.8931 16.9961 23.4967C17.9928 20.9751 19.4135 14.9533 16.835 13.0758C15.4491 12.0647 15.2933 12.7637 14.2793 13.5426C13.6247 14.0445 12.6403 14.0193 12.8535 14.9655L12.1123 14.7106C12.323 15.6991 11.6757 15.4048 11.2988 15.7067C10.7885 16.1158 9.9884 16.4628 9.92773 16.5231C9.71948 16.7378 9.93748 18.0114 8.64355 16.9557C8.81429 18.221 7.49034 17.9116 6.80859 17.9616C6.62774 17.9742 6.67705 18.4211 6.49609 18.4635C4.96893 18.8078 3.73924 17.02 3.19629 15.8317C3.21487 15.5692 6.86321 14.1487 7.41602 13.8542C9.03996 12.9903 10.9666 11.1835 12.6699 10.6667C13.3592 10.4569 13.8579 10.4519 14.5596 10.4469C14.6763 10.3463 15.4767 7.84369 15.6504 7.55337C15.7347 7.41106 16.1191 7.32093 16.2803 7.07876C17.4034 5.37859 18.2438 3.93307 20.4727 3.5436ZM58.9189 32.4499V32.4479C58.9634 32.481 58.8824 33.1766 59.6729 32.9372L59.4229 34.4303L58.2051 34.0231L58.4355 32.4372L58.9189 32.4499ZM55.7168 31.6862C56.4752 31.4793 57.1146 33.0457 56.8945 33.3883C56.8623 33.4383 55.9791 33.9301 55.8428 33.9401L54.9678 33.0514L55.7168 31.6862ZM54.457 31.5563C53.3636 33.7508 51.4647 32.5021 53.3564 30.692L54.457 31.5563ZM15.3301 27.5758C15.2159 26.7499 14.038 28.0327 13.7207 28.0827C13.4899 28.1197 12.962 27.846 12.8555 27.9508C12.8143 27.9928 12.9245 28.4033 12.791 28.6149C12.7021 28.7535 11.3535 29.7106 11.207 30.0026V30.0006C10.5084 31.3935 12.7866 31.6826 13.8477 30.317C14.1455 29.9345 15.3772 27.9178 15.3301 27.5758ZM51.2559 29.3014C52.3145 31.0365 49.3816 31.3815 49.7656 29.4469L51.2559 29.3014ZM37.873 12.4821L38.3613 13.9674C37.6423 13.92 37.9294 14.7538 37.5947 15.318C36.8658 16.5489 35.6933 17.5302 34.8701 18.6862L34.1807 18.4743C33.7192 20.6911 30.1945 22.3262 31.5977 24.7204C34.5404 25.0748 35.7849 22.913 37.5352 21.0006C38.2517 21.0306 39.9549 22.6631 39.583 23.1774C39.5406 23.2348 39.0679 23.3204 38.8398 23.57C38.5744 23.8598 37.6346 25.2552 37.3223 25.6247C37.263 25.6937 36.0328 26.6554 35.9561 26.7028C34.7536 27.4567 33.2512 27.3948 31.9297 27.6969V26.943C30.921 27.4046 31.1611 26.7204 30.6855 26.3434C30.5839 26.2635 30.2915 26.4327 30.2393 26.3854C30.1253 26.2831 28.9406 23.9166 28.8701 23.6549C28.59 22.5764 28.9517 22.236 29.1426 21.2624C29.1969 20.9904 28.9717 20.6712 29.0234 20.5114C29.0532 20.419 30.023 19.1909 30.4346 19.443C29.9213 18.1922 31.139 18.2964 31.5977 17.8844C32.8892 16.7261 34.0121 15.3606 35.2715 14.2272L37.8701 12.4792L37.873 12.4821ZM93.8584 2.75454C93.3701 2.65723 93.2681 2.98138 93.0674 3.32583C91.684 5.69756 90.6728 9.79233 89.5225 12.4762C87.8663 16.3335 85.9446 21.1973 82.124 23.1872L81.9697 23.7008C83.0482 23.2514 86.0685 25.9559 86.666 25.4391C86.9263 24.0111 88.1856 22.9373 88.9492 21.6266C91.017 18.0689 92.8319 11.1656 93.541 7.0436C93.784 5.63306 93.9283 4.19005 93.8613 2.75454H93.8584ZM54.5908 18.2135C54.0553 20.1709 52.2572 22.6175 50.5439 23.736C50.6034 26.2 53.1125 23.0925 53.7227 22.3258C54.6995 21.095 55.6024 19.7838 55.9619 18.2184H55.959L54.5908 18.2135Z" fill="#332115"/>
</svg>
